<?xml version="1.0" standalone="no"?>
<!DOCTYPE svg PUBLIC "-//W3C//DTD SVG 20010904//EN"
 "http://www.w3.org/TR/2001/REC-SVG-20010904/DTD/svg10.dtd">
<svg version="1.0" xmlns="http://www.w3.org/2000/svg"
 width="500.000000pt" height="500.000000pt" viewBox="0 0 500.000000 500.000000"
 preserveAspectRatio="xMidYMid meet">
<metadata>
Created by potrace 1.14, written by Peter Selinger 2001-2017
</metadata>
<g transform="translate(0.000000,500.000000) scale(0.100000,-0.100000)"
fill="#000000" stroke="none">
<path d="M1588 4500 c50 -33 92 -63 92 -65 0 -1 -46 14 -102 36 l-103 39 -87
-87 c-120 -121 -270 -329 -363 -503 -17 -30 -33 -57 -36 -60 -7 -6 -149 -294
-149 -303 0 -4 42 -7 93 -7 l92 0 60 82 c33 45 114 136 180 203 181 181 387
329 627 450 l127 64 -87 50 c-149 85 -290 141 -394 156 -43 6 -43 6 50 -55z"/>
<path d="M3148 4495 c-2 -1 -64 -5 -138 -8 -74 -4 -152 -9 -172 -12 -21 -3
-53 -7 -70 -9 -124 -15 -469 -100 -552 -135 -25 -11 -47 -20 -49 -20 -9 3
-114 -45 -232 -106 -168 -86 -314 -181 -450 -295 -38 -32 -263 -257 -290 -290
-49 -61 -125 -171 -165 -239 -37 -65 -63 -117 -125 -256 -25 -56 -57 -160 -71
-230 -7 -38 -16 -81 -19 -95 -20 -100 -25 -303 -9 -435 27 -216 68 -356 162
-540 l57 -110 5 50 6 50 19 -33 c91 -153 196 -296 298 -406 25 -27 53 -67 62
-90 89 -210 189 -363 324 -494 97 -95 226 -202 243 -202 4 0 6 44 6 98 -3 259
63 477 215 707 115 173 218 279 447 457 98 76 112 88 103 88 -20 0 -267 -94
-378 -145 -27 -12 -75 -33 -105 -45 -131 -55 -550 -276 -465 -245 11 4 63 23
115 42 52 19 101 35 108 36 6 0 12 4 12 9 0 4 7 8 16 8 9 0 30 7 47 14 124 57
237 104 237 98 0 -4 -44 -31 -98 -59 -53 -29 -131 -71 -172 -94 -41 -22 -97
-52 -123 -66 -90 -48 -39 -35 122 31 89 36 159 61 156 56 -3 -5 -72 -54 -153
-108 -106 -71 -160 -102 -192 -108 -25 -4 -47 -8 -50 -9 -3 0 -35 -7 -73 -14
-37 -7 -70 -17 -72 -22 -6 -9 67 -135 139 -239 64 -92 69 -100 60 -100 -20 0
-305 325 -321 367 -3 7 -9 13 -14 13 -15 0 36 -122 87 -212 45 -76 184 -271
209 -291 20 -17 -30 4 -60 25 -65 44 -218 263 -296 421 -39 80 -62 112 -126
176 -177 176 -316 400 -382 616 -30 99 -33 113 -47 210 -20 133 2 384 42 498
24 67 14 60 -76 -53 -17 -23 -17 -17 6 60 25 82 99 274 114 295 4 6 24 42 45
80 146 271 365 510 612 669 39 25 74 46 77 46 3 0 -34 -48 -81 -107 -156 -194
-285 -411 -356 -598 -38 -98 -33 -102 14 -15 145 267 396 569 619 748 133 106
340 231 450 273 20 8 18 4 -10 -18 -166 -132 -531 -482 -639 -612 -29 -35 -58
-70 -64 -76 -7 -6 -20 -23 -29 -36 -10 -13 -36 -48 -58 -78 -22 -30 -40 -56
-40 -58 0 -2 66 63 148 145 278 280 517 460 777 588 171 83 215 94 120 29 -67
-46 -335 -244 -345 -255 -3 -3 -32 -27 -65 -55 -33 -27 -96 -85 -140 -128
l-80 -79 65 43 c36 24 67 47 68 52 2 4 8 7 12 7 5 0 47 24 92 53 147 94 333
196 463 253 44 20 98 44 120 54 71 31 207 72 320 95 87 18 133 22 220 19 119
-4 135 -5 135 -11 0 -2 -26 -30 -58 -62 -110 -111 -208 -263 -227 -356 -6 -27
-4 -25 21 15 89 147 228 266 371 320 56 21 190 47 198 38 3 -3 -2 -19 -11 -37
-21 -43 -13 -94 24 -146 57 -81 219 -135 322 -107 34 9 34 9 -20 11 -84 2
-105 6 -152 30 -55 29 -83 55 -103 98 -30 62 14 133 82 133 l28 0 -32 -20
c-44 -26 -51 -60 -23 -105 32 -52 90 -79 172 -80 55 0 71 4 88 21 12 11 23 29
24 39 5 32 22 28 80 -20 l57 -46 87 22 c91 22 195 29 272 16 l45 -7 -52 49
c-135 129 -327 245 -588 357 -175 74 -622 181 -800 190 -44 3 -90 6 -102 8
-13 2 -24 2 -25 1z m834 -455 c-37 -35 -10 -89 54 -110 43 -15 90 -5 109 23
12 17 15 18 15 5 0 -28 -49 -58 -93 -58 -109 0 -194 109 -114 148 38 18 53 14
29 -8z m136 -48 c15 -20 11 -36 -12 -40 -51 -10 -94 30 -60 55 21 15 53 8 72
-15z m-1744 -2266 c-10 -8 -21 -12 -24 -10 -5 6 21 24 34 24 6 0 1 -6 -10 -14z"/>
<path d="M3619 3848 c-25 -35 -53 -81 -63 -103 -24 -52 -33 -179 -16 -231 19
-57 70 -132 130 -191 l52 -52 -52 20 c-114 43 -199 107 -233 174 -42 86 -41
195 4 303 l19 47 -36 -40 c-81 -89 -114 -207 -86 -307 22 -81 104 -178 212
-252 30 -21 57 -39 59 -41 6 -6 -186 3 -211 10 -13 3 -41 11 -63 17 -140 37
-228 130 -252 264 -14 78 -3 203 24 278 21 58 32 96 28 96 -8 0 -76 -137 -97
-195 -17 -47 -22 -82 -23 -160 0 -88 3 -107 26 -155 48 -100 150 -184 284
-233 75 -28 65 -33 -31 -16 -141 25 -246 81 -341 181 -48 51 -123 157 -123
175 0 4 -7 17 -16 28 -14 19 -15 17 -9 -25 29 -201 159 -351 381 -438 l49 -20
-95 -30 c-112 -36 -201 -59 -252 -65 l-36 -5 13 46 c8 25 12 48 10 52 -2 4
-28 7 -57 8 -29 1 -96 5 -148 8 -52 4 -111 8 -130 10 -19 1 -39 2 -45 3 -18 2
31 40 100 76 l70 38 -70 -7 c-38 -4 -86 -11 -105 -16 -19 -5 -51 -11 -70 -14
-60 -9 -231 -56 -335 -93 -186 -65 -328 -139 -452 -235 -35 -26 -65 -48 -67
-48 -8 0 47 94 88 149 22 30 71 85 109 123 38 37 61 65 50 61 -10 -4 -22 -11
-28 -15 -5 -5 -39 -27 -75 -51 -94 -61 -226 -198 -283 -294 -47 -78 -100 -212
-112 -280 -3 -18 -8 -48 -11 -65 -9 -50 -6 -216 6 -277 5 -30 8 -56 6 -58 -2
-2 -15 24 -30 58 -23 54 -32 83 -51 163 -11 46 -16 24 -11 -49 16 -231 107
-423 274 -576 91 -84 100 -87 151 -55 145 92 538 252 796 325 181 51 221 63
235 68 8 3 26 8 40 10 50 9 32 14 -39 12 -122 -4 -343 -48 -546 -109 -80 -24
-310 -109 -415 -154 -46 -20 -88 -36 -93 -36 -17 0 -109 105 -143 163 -58 98
-69 146 -69 292 0 108 4 143 23 203 63 201 135 284 283 328 66 20 83 23 179
29 41 2 77 5 80 5 3 0 -9 9 -26 19 -18 11 -35 24 -38 29 -3 5 20 20 52 32 31
12 66 26 77 31 46 20 209 61 330 84 158 29 193 33 318 41 l97 6 -11 -29 c-13
-35 -43 -68 -86 -94 -18 -12 -33 -24 -33 -28 0 -10 152 -1 230 13 14 3 36 7
50 10 184 32 477 151 745 301 55 31 115 63 134 71 40 18 146 22 246 9 179 -23
352 -1 481 62 74 35 151 97 154 123 5 36 -2 61 -24 86 -22 27 -25 27 -64 16
-41 -13 -96 -65 -112 -108 -26 -68 -287 -119 -464 -91 -176 28 -342 137 -401
264 -45 94 -37 220 20 336 13 26 21 47 17 47 -5 0 -28 -28 -53 -62z"/>
<path d="M4425 3825 c-154 -39 -285 -111 -412 -228 -115 -106 -127 -217 -28
-255 109 -41 229 -48 355 -18 14 3 37 8 52 12 42 9 41 20 0 17 -21 -2 -66 7
-102 20 -60 21 -65 25 -66 52 0 17 6 50 13 74 43 147 171 252 372 305 141 38
144 46 16 45 -77 -1 -137 -8 -200 -24z"/>
<path d="M2447 3660 c-109 -39 -291 -129 -324 -159 -10 -9 -28 -24 -40 -32
-38 -26 -127 -112 -157 -152 l-29 -38 29 6 c16 3 81 7 144 10 110 5 134 7 225
21 44 6 130 27 212 50 51 15 52 16 39 37 -14 23 -31 97 -22 97 3 0 13 -15 22
-32 18 -34 29 -45 76 -73 l28 -16 -32 51 c-25 41 -32 64 -36 123 -2 39 0 89 6
110 10 35 9 37 -11 36 -12 0 -71 -18 -130 -39z"/>
<path d="M2465 2854 c-112 -21 -353 -91 -373 -109 -1 -1 -9 -27 -17 -57 -25
-99 -91 -202 -199 -317 l-51 -53 50 7 c154 22 356 123 542 271 60 48 263 252
263 265 0 12 -140 7 -215 -7z"/>
</g>
</svg>
